<svg width="939" height="509" xmlns="http://www.w3.org/2000/svg" xmlns:xlink="http://www.w3.org/1999/xlink" overflow="hidden"><defs><clipPath id="clip0"><path d="M94 174 1033 174 1033 683 94 683Z" fill-rule="evenodd" clip-rule="evenodd"/></clipPath></defs><g clip-path="url(#clip0)" transform="translate(-94 -174)"><path d="M212.5 233.501C212.5 201.468 238.468 175.5 270.501 175.5L502.499 175.5C534.532 175.5 560.5 201.468 560.5 233.501L560.5 624.499C560.5 656.532 534.532 682.5 502.499 682.5L270.501 682.5C238.468 682.5 212.5 656.532 212.5 624.499Z" stroke="#000000" stroke-miterlimit="8" fill="#FFFFFF" fill-rule="evenodd"/><text font-family="DengXian,DengXian_MSFontService,sans-serif" font-weight="400" font-size="24" transform="translate(326.222 219)">客户端容器</text><rect x="259.5" y="546.5" width="254" height="82" stroke="#000000" stroke-miterlimit="8" fill="#FFFFFF"/><text font-family="DengXian,DengXian_MSFontService,sans-serif" font-weight="400" font-size="24" transform="translate(337.972 580)">GlusterFS<tspan x="18.9133" y="29">Clien</tspan>t</text><rect x="259.5" y="241.5" width="254" height="82" stroke="#000000" stroke-miterlimit="8" fill="#FFFFFF"/><text font-family="DengXian,DengXian_MSFontService,sans-serif" font-weight="400" font-size="24" transform="translate(357.472 289)">Node</text><rect x="259.5" y="408.5" width="254" height="53" stroke="#000000" stroke-miterlimit="8" fill="#FFFFFF"/><text font-family="DengXian,DengXian_MSFontService,sans-serif" font-weight="400" font-size="24" transform="translate(350.222 442)">虚拟卷</text><path d="M259.5 504 386.5 463.5 513.5 504 450 504 450 544.5 323 544.5 323 504Z" stroke="#000000" stroke-miterlimit="8" fill="#FFFFFF" fill-rule="evenodd"/><text font-family="DengXian,DengXian_MSFontService,sans-serif" font-weight="400" font-size="24" transform="translate(362.222 521)">挂载</text><path d="M309.5 350.989 386.5 324.5 463.5 350.989 432.096 350.989 432.096 381.011 463.5 381.011 386.5 407.5 309.5 381.011 340.905 381.011 340.905 350.989Z" stroke="#000000" stroke-miterlimit="8" fill="#FFFFFF" fill-rule="evenodd"/><text font-family="DengXian,DengXian_MSFontService,sans-serif" font-weight="400" font-size="24" transform="translate(362.222 373)">读写</text><path d="M684.5 234.835C684.5 205.379 708.379 181.5 737.835 181.5L979.166 181.5C1008.62 181.5 1032.5 205.379 1032.5 234.835L1032.5 448.166C1032.5 477.621 1008.62 501.5 979.166 501.5L737.835 501.5C708.379 501.5 684.5 477.621 684.5 448.166Z" stroke="#000000" stroke-miterlimit="8" fill="#FFFFFF" fill-rule="evenodd"/><text font-family="DengXian,DengXian_MSFontService,sans-serif" font-weight="400" font-size="24" transform="translate(798.222 224)">服务端容器</text><rect x="731.5" y="247.5" width="254" height="82" stroke="#000000" stroke-miterlimit="8" fill="#FFFFFF"/><text font-family="DengXian,DengXian_MSFontService,sans-serif" font-weight="400" font-size="24" transform="translate(809.972 281)">GlusterFS<tspan x="16" y="29">Server</tspan></text><rect x="731.5" y="414.5" width="254" height="53" stroke="#000000" stroke-miterlimit="8" fill="#FFFFFF"/><text font-family="DengXian,DengXian_MSFontService,sans-serif" font-weight="400" font-size="24" transform="translate(786.222 448)">容器文件系统</text><path d="M781.5 356.989 858.5 330.5 935.5 356.989 904.096 356.989 904.096 387.011 935.5 387.011 858.5 413.5 781.5 387.011 812.904 387.011 812.904 356.989Z" stroke="#000000" stroke-miterlimit="8" fill="#FFFFFF" fill-rule="evenodd"/><text font-family="DengXian,DengXian_MSFontService,sans-serif" font-weight="400" font-size="24" transform="translate(834.222 379)">读写</text><rect x="731.5" y="552.5" width="254" height="82" stroke="#000000" stroke-miterlimit="8" fill="#FFFFFF"/><text font-family="DengXian,DengXian_MSFontService,sans-serif" font-weight="400" font-size="24" transform="translate(786.222 601)">主机文件系统</text><path d="M731.5 510.5 858.5 469.5 985.5 510.5 922 510.5 922 551.5 795 551.5 795 510.5Z" stroke="#000000" stroke-miterlimit="8" fill="#FFFFFF" fill-rule="evenodd"/><text font-family="DengXian,DengXian_MSFontService,sans-serif" font-weight="400" font-size="24" transform="translate(834.222 527)">挂载</text><path d="M15-3 112.111-3 112.111 299.306 109.111 296.306 203.222 296.306 203.222 302.306 106.111 302.306 106.111 0 109.111 3 15 3ZM18 9 0 0 18-9ZM200.222 290.306 218.222 299.306 200.222 308.306Z" transform="matrix(1 0 0 -1 513 587.306)"/><text font-family="DengXian,DengXian_MSFontService,sans-serif" font-weight="400" font-size="24" transform="translate(578.891 273)">容器网络</text><path d="M3.08785e-06-3 87-2.99991 87 3.00009-3.08785e-06 3ZM84-8.99991 102 0.000104987 84 9.00009Z" transform="matrix(-1 -8.74228e-08 -8.74228e-08 1 259 282)"/><text font-family="DengXian,DengXian_MSFontService,sans-serif" font-weight="400" font-size="24" transform="translate(108.771 268)">外部网络</text></g></svg>